The Unbookables (2010)
Documentary   -  2011 (USA)
Not yet released
(voting begins after release)  
The Unbookables is a narrative documentary about stand-up comics who have spent their careers pushing limits--on stage and off... See full summary »

Director: Jeff Pearson
Writer: Jeff Pearson
Stars: Paul Provenza, Sean Rouse and Kristine Levine


General
Unique ID                        : 255797899734418312398706986166266702754 (0xC070E22BCF5E1847815D33F487E92BA2)
Complete name                    : D:\Videos\The.Unbookables.2010.DVDRip.x264-P2P\The.Unbookables.2010.DVDRip.x264-P2P.mkv
Format                           : Matroska
Format version                   : Version 2
File size                        : 1.85 GiB
Duration                         : 1h 35mn
Overall bit rate                 : 2 769 Kbps
Writing application              : HandBrake 0.9.5
Writing library                  : libmkv 0.6.4.1

Video
ID                               : 1
Format                           : AVC
Format/Info                      : Advanced Video Codec
Format profile                   : High@L3.1
Format settings, CABAC           : Yes
Format settings, ReFrames        : 9 frames
Codec ID                         : V_MPEG4/ISO/AVC
Duration                         : 1h 35mn
Bit rate                         : 2 522 Kbps
Width                            : 720 pixels
Height                           : 480 pixels
Display aspect ratio             : 16:9
Original display aspect ratio    : 16:9
Frame rate mode                  : Variable
Frame rate                       : 23.976 fps
Standard                         : NTSC
Color space                      : YUV
Chroma subsampling               : 4:2:0
Bit depth                        : 8 bits
Scan type                        : Progressive
Bits/(Pixel*Frame)               : 0.304
Stream size                      : 1.69 GiB (91%)
Writing library                  : x264 core 112
Encoding settings                : cabac=1 / ref=9 / deblock=1:-2:-2 / analyse=0x3:0x133 / me=umh / subme=9 / psy=1 / psy_rd=1.00:0.00 / mixed_ref=1 / me_range=24 / chroma_me=1 / trellis=2 / 8x8dct=1 / cqm=0 / deadzone=21,11 / fast_pskip=0 / chroma_qp_offset=-2 / threads=6 / sliced_threads=0 / nr=0 / decimate=1 / interlaced=0 / constrained_intra=0 / bframes=6 / b_pyramid=2 / b_adapt=2 / b_bias=0 / direct=3 / weightb=1 / open_gop=0 / weightp=2 / keyint=240 / keyint_min=23 / scenecut=40 / intra_refresh=0 / rc_lookahead=50 / rc=crf / mbtree=1 / crf=18.5 / qcomp=0.60 / qpmin=3 / qpmax=51 / qpstep=4 / ip_ratio=1.40 / aq=1:1.20
Language                         : English
Color primaries                  : BT.601-6 525, BT.1358 525, BT.1700 NTSC, SMPTE 170M
Transfer characteristics         : BT.709-5, BT.1361
Matrix coefficients              : BT.601-6 525, BT.1358 525, BT.1700 NTSC, SMPTE 170M

Audio
ID                               : 2
Format                           : AC-3
Format/Info                      : Audio Coding 3
Format profile                   : Dolby Digital
Mode extension                   : CM (complete main)
Codec ID                         : A_AC3
Duration                         : 1h 35mn
Bit rate mode                    : Constant
Bit rate                         : 192 Kbps
Channel(s)                       : 2 channels
Channel positions                : Front: L R
Sampling rate                    : 48.0 KHz
Bit depth                        : 16 bits
Compression mode                 : Lossy
Stream size                      : 132 MiB (7%)
Language                         : English

Menu
00:00:00.000                     : Chapter 1
00:01:07.567                     : Chapter 2
00:07:03.423                     : Chapter 3
00:11:10.169                     : Chapter 4
00:14:28.367                     : Chapter 5
00:19:33.672                     : Chapter 6
00:24:44.983                     : Chapter 7
00:28:02.180                     : Chapter 8
00:31:28.386                     : Chapter 9
00:34:50.088                     : Chapter 10
00:42:51.569                     : Chapter 11
00:46:54.311                     : Chapter 12
00:50:48.045                     : Chapter 13
00:56:03.360                     : Chapter 14
01:00:28.124                     : Chapter 15
01:03:27.804                     : Chapter 16
01:06:53.509                     : Chapter 17
01:12:31.347                     : Chapter 18
01:15:09.004                     : Chapter 19
01:21:05.861                     : Chapter 20
01:25:08.603                     : Chapter 21
01:28:37.812                     : Chapter 22
01:31:47.001                     : Chapter 23
